<?xml version="1.0" standalone="no"?>
<svg xmlns:xlink="http://www.w3.org/1999/xlink" id="wave" style="transform:rotate(180deg); transition: 0.3s" viewBox="0 0 1440 100" version="1.1" xmlns="http://www.w3.org/2000/svg"><defs><linearGradient id="sw-gradient-0" x1="0" x2="0" y1="1" y2="0"><stop stop-color="rgba(243, 106, 62, 1)" offset="0%"/><stop stop-color="rgba(255, 179, 11, 1)" offset="100%"/></linearGradient></defs><path style="transform:translate(0, 0px); opacity:1" fill="url(#sw-gradient-0)" d="M0,70L40,66.7C80,63,160,57,240,51.7C320,47,400,43,480,36.7C560,30,640,20,720,15C800,10,880,10,960,23.3C1040,37,1120,63,1200,66.7C1280,70,1360,50,1440,45C1520,40,1600,50,1680,58.3C1760,67,1840,73,1920,66.7C2000,60,2080,40,2160,30C2240,20,2320,20,2400,30C2480,40,2560,60,2640,60C2720,60,2800,40,2880,36.7C2960,33,3040,47,3120,45C3200,43,3280,27,3360,26.7C3440,27,3520,43,3600,53.3C3680,63,3760,67,3840,65C3920,63,4000,57,4080,46.7C4160,37,4240,23,4320,18.3C4400,13,4480,17,4560,30C4640,43,4720,67,4800,63.3C4880,60,4960,30,5040,16.7C5120,3,5200,7,5280,10C5360,13,5440,17,5520,18.3C5600,20,5680,20,5720,20L5760,20L5760,100L5720,100C5680,100,5600,100,5520,100C5440,100,5360,100,5280,100C5200,100,5120,100,5040,100C4960,100,4880,100,4800,100C4720,100,4640,100,4560,100C4480,100,4400,100,4320,100C4240,100,4160,100,4080,100C4000,100,3920,100,3840,100C3760,100,3680,100,3600,100C3520,100,3440,100,3360,100C3280,100,3200,100,3120,100C3040,100,2960,100,2880,100C2800,100,2720,100,2640,100C2560,100,2480,100,2400,100C2320,100,2240,100,2160,100C2080,100,2000,100,1920,100C1840,100,1760,100,1680,100C1600,100,1520,100,1440,100C1360,100,1280,100,1200,100C1120,100,1040,100,960,100C880,100,800,100,720,100C640,100,560,100,480,100C400,100,320,100,240,100C160,100,80,100,40,100L0,100Z"/></svg>