<?xml version="1.0" standalone="no"?>
<svg xmlns:xlink="http://www.w3.org/1999/xlink" id="wave" style="transform:rotate(180deg); transition: 0.3s" viewBox="0 0 1440 100" version="1.1" xmlns="http://www.w3.org/2000/svg"><defs><linearGradient id="sw-gradient-0" x1="0" x2="0" y1="1" y2="0"><stop stop-color="rgba(225, 223, 242, 1)" offset="0%"/><stop stop-color="rgba(225, 223, 242, 1)" offset="100%"/></linearGradient></defs><path style="transform:translate(0, 0px); opacity:1" fill="url(#sw-gradient-0)" d="M0,70L30,66.7C60,63,120,57,180,51.7C240,47,300,43,360,36.7C420,30,480,20,540,15C600,10,660,10,720,23.3C780,37,840,63,900,66.7C960,70,1020,50,1080,45C1140,40,1200,50,1260,58.3C1320,67,1380,73,1440,66.7C1500,60,1560,40,1620,30C1680,20,1740,20,1800,30C1860,40,1920,60,1980,60C2040,60,2100,40,2160,36.7C2220,33,2280,47,2340,45C2400,43,2460,27,2520,26.7C2580,27,2640,43,2700,53.3C2760,63,2820,67,2880,65C2940,63,3000,57,3060,46.7C3120,37,3180,23,3240,18.3C3300,13,3360,17,3420,30C3480,43,3540,67,3600,63.3C3660,60,3720,30,3780,16.7C3840,3,3900,7,3960,10C4020,13,4080,17,4140,18.3C4200,20,4260,20,4290,20L4320,20L4320,100L4290,100C4260,100,4200,100,4140,100C4080,100,4020,100,3960,100C3900,100,3840,100,3780,100C3720,100,3660,100,3600,100C3540,100,3480,100,3420,100C3360,100,3300,100,3240,100C3180,100,3120,100,3060,100C3000,100,2940,100,2880,100C2820,100,2760,100,2700,100C2640,100,2580,100,2520,100C2460,100,2400,100,2340,100C2280,100,2220,100,2160,100C2100,100,2040,100,1980,100C1920,100,1860,100,1800,100C1740,100,1680,100,1620,100C1560,100,1500,100,1440,100C1380,100,1320,100,1260,100C1200,100,1140,100,1080,100C1020,100,960,100,900,100C840,100,780,100,720,100C660,100,600,100,540,100C480,100,420,100,360,100C300,100,240,100,180,100C120,100,60,100,30,100L0,100Z"/></svg>