<?xml version="1.0" standalone="no"?>
<svg xmlns:xlink="http://www.w3.org/1999/xlink" id="wave" style="transform:rotate(180deg); transition: 0.3s" viewBox="0 0 1440 100" version="1.1" xmlns="http://www.w3.org/2000/svg"><defs><linearGradient id="sw-gradient-0" x1="0" x2="0" y1="1" y2="0"><stop stop-color="rgba(225, 223, 242, 1)" offset="0%"/><stop stop-color="rgba(225, 223, 242, 1)" offset="100%"/></linearGradient></defs><path style="transform:translate(0, 0px); opacity:1" fill="url(#sw-gradient-0)" d="M0,0L16,3.3C32,7,64,13,96,21.7C128,30,160,40,192,51.7C224,63,256,77,288,73.3C320,70,352,50,384,38.3C416,27,448,23,480,21.7C512,20,544,20,576,23.3C608,27,640,33,672,41.7C704,50,736,60,768,58.3C800,57,832,43,864,45C896,47,928,63,960,60C992,57,1024,33,1056,35C1088,37,1120,63,1152,71.7C1184,80,1216,70,1248,58.3C1280,47,1312,33,1344,35C1376,37,1408,53,1440,50C1472,47,1504,23,1536,20C1568,17,1600,33,1632,38.3C1664,43,1696,37,1728,30C1760,23,1792,17,1824,18.3C1856,20,1888,30,1920,31.7C1952,33,1984,27,2016,35C2048,43,2080,67,2112,68.3C2144,70,2176,50,2208,46.7C2240,43,2272,57,2288,63.3L2304,70L2304,100L2288,100C2272,100,2240,100,2208,100C2176,100,2144,100,2112,100C2080,100,2048,100,2016,100C1984,100,1952,100,1920,100C1888,100,1856,100,1824,100C1792,100,1760,100,1728,100C1696,100,1664,100,1632,100C1600,100,1568,100,1536,100C1504,100,1472,100,1440,100C1408,100,1376,100,1344,100C1312,100,1280,100,1248,100C1216,100,1184,100,1152,100C1120,100,1088,100,1056,100C1024,100,992,100,960,100C928,100,896,100,864,100C832,100,800,100,768,100C736,100,704,100,672,100C640,100,608,100,576,100C544,100,512,100,480,100C448,100,416,100,384,100C352,100,320,100,288,100C256,100,224,100,192,100C160,100,128,100,96,100C64,100,32,100,16,100L0,100Z"/></svg>